<?xml version="1.0" encoding="utf-8"?>
<!-- Generator: Adobe Illustrator 16.0.0, SVG Export Plug-In . SVG Version: 6.00 Build 0)  -->
<!DOCTYPE svg PUBLIC "-//W3C//DTD SVG 1.1//EN" "http://www.w3.org/Graphics/SVG/1.1/DTD/svg11.dtd">
<svg version="1.1" id="Capa_1" xmlns="http://www.w3.org/2000/svg" xmlns:xlink="http://www.w3.org/1999/xlink" x="0px" y="0px"
	 width="200px" height="200px" viewBox="0 0 200 200" enable-background="new 0 0 200 200" xml:space="preserve">
<g>
	<path id="Constellation" fill="#FFFFFF" d="M73.438,37.5H20.312c-0.863,0-1.562,0.7-1.562,1.563c0,0.862,0.7,1.562,1.562,1.562
		h53.125c0.863,0,1.562-0.7,1.562-1.562C75,38.2,74.3,37.5,73.438,37.5 M163.019,157.9l-53.125-18.75
		c-0.804-0.281-1.706,0.141-1.993,0.956c-0.285,0.812,0.141,1.706,0.955,1.993l53.126,18.75c0.171,0.06,0.344,0.088,0.519,0.088
		c0.644,0,1.246-0.4,1.475-1.043C164.26,159.081,163.834,158.188,163.019,157.9 M184.682,117.219
		c-0.816-0.172-1.669,0.375-1.838,1.225l-6.25,31.25c-0.172,0.848,0.377,1.672,1.225,1.838c0.104,0.021,0.206,0.031,0.31,0.031
		c0.729,0,1.378-0.513,1.528-1.256l6.25-31.25C186.078,118.209,185.527,117.385,184.682,117.219 M132.891,83.881
		c-0.271,0.819,0.172,1.703,0.99,1.978l37.5,12.5c0.166,0.053,0.328,0.078,0.494,0.078c0.652,0,1.262-0.416,1.484-1.069
		c0.271-0.818-0.172-1.703-0.99-1.978l-37.5-12.5C134.053,82.625,133.169,83.062,132.891,83.881 M117.328,86.853l-15.625,34.375
		c-0.355,0.787-0.009,1.713,0.775,2.068c0.209,0.094,0.431,0.141,0.646,0.141c0.591,0,1.16-0.338,1.422-0.916l15.625-34.375
		c0.355-0.788,0.01-1.712-0.775-2.069C118.612,85.729,117.688,86.065,117.328,86.853 M98.894,48.894c-0.609,0.612-0.609,1.6,0,2.212
		l15.625,15.625c0.306,0.303,0.706,0.456,1.106,0.456s0.799-0.153,1.105-0.456c0.609-0.612,0.609-1.6,0-2.213l-15.625-15.625
		C100.494,48.285,99.506,48.285,98.894,48.894 M81.25,39.062c0-4.31,3.506-7.812,7.812-7.812s7.812,3.503,7.812,7.812
		c0,4.306-3.506,7.812-7.812,7.812S81.25,43.369,81.25,39.062 M100,39.062c0-6.041-4.896-10.938-10.937-10.938
		s-10.938,4.896-10.938,10.938C78.125,45.103,83.022,50,89.062,50C95.103,50,100,45.104,100,39.062 M187.5,112.5
		c-5.169,0-9.375-4.207-9.375-9.375c0-5.169,4.206-9.375,9.375-9.375s9.375,4.207,9.375,9.375
		C196.875,108.293,192.669,112.5,187.5,112.5 M187.5,90.625c-6.903,0-12.5,5.597-12.5,12.5s5.597,12.5,12.5,12.5
		s12.5-5.597,12.5-12.5S194.403,90.625,187.5,90.625 M7.812,43.75c-2.584,0-4.688-2.104-4.688-4.688
		c0-2.584,2.103-4.688,4.688-4.688s4.688,2.104,4.688,4.688C12.5,41.646,10.397,43.75,7.812,43.75 M7.812,31.25
		C3.497,31.25,0,34.747,0,39.062c0,4.315,3.497,7.812,7.812,7.812s7.812-3.497,7.812-7.812S12.128,31.25,7.812,31.25 M125,68.75
		c3.447,0,6.25,2.803,6.25,6.25c0,3.447-2.804,6.25-6.25,6.25c-3.447,0-6.25-2.803-6.25-6.25C118.75,71.553,121.553,68.75,125,68.75
		 M125,84.375c5.178,0,9.375-4.197,9.375-9.375c0-5.178-4.197-9.375-9.375-9.375c-5.179,0-9.375,4.197-9.375,9.375
		C115.625,80.178,119.822,84.375,125,84.375 M175,168.75c-3.447,0-6.25-2.804-6.25-6.25c0-3.447,2.803-6.25,6.25-6.25
		c3.446,0,6.25,2.803,6.25,6.25S178.447,168.75,175,168.75 M175,153.125c-5.178,0-9.375,4.196-9.375,9.375
		c0,5.178,4.196,9.375,9.375,9.375c5.178,0,9.375-4.197,9.375-9.375C184.375,157.321,180.178,153.125,175,153.125 M96.875,140.625
		c-3.447,0-6.25-2.804-6.25-6.25c0-3.447,2.803-6.25,6.25-6.25c3.446,0,6.25,2.803,6.25,6.25
		C103.125,137.821,100.322,140.625,96.875,140.625 M96.875,125c-5.178,0-9.375,4.196-9.375,9.375c0,5.178,4.197,9.375,9.375,9.375
		c5.178,0,9.375-4.197,9.375-9.375C106.25,129.196,102.053,125,96.875,125"/>
</g>
</svg>
