<?xml version="1.0" encoding="utf-8"?>
<!-- Generator: Adobe Illustrator 16.0.0, SVG Export Plug-In . SVG Version: 6.00 Build 0)  -->
<!DOCTYPE svg PUBLIC "-//W3C//DTD SVG 1.1//EN" "http://www.w3.org/Graphics/SVG/1.1/DTD/svg11.dtd">
<svg version="1.1" id="Layer_1" xmlns="http://www.w3.org/2000/svg" xmlns:xlink="http://www.w3.org/1999/xlink" x="0px" y="0px"
	 width="200px" height="200px" viewBox="0 0 200 200" enable-background="new 0 0 200 200" xml:space="preserve">
<g>
	<g>
		<g>
			<rect x="168.749" y="20.313" fill="#FFFFFF" width="6.25" height="6.25"/>
			<rect x="162.5" y="29.688" fill="#FFFFFF" width="6.25" height="6.25"/>
			<path fill="#FFFFFF" d="M175,1.563c-13.785,0-25,11.215-25,25s11.215,25,25,25s25-11.215,25-25S188.785,1.563,175,1.563z
				 M179.172,35.938h-7.297v6.25h3.997c-0.679,1.013-1.433,2.035-2.276,3.066c-9.685-0.721-17.346-8.826-17.346-18.692
				c0-2.191,0.381-4.294,1.074-6.25h8.301v-6.25h-4.586c3.16-3.524,7.631-5.847,12.637-6.198
				C176.48,11.117,184.549,22.132,179.172,35.938z M182.213,43.868c6.417-10.68,5.608-20.37,3.459-27.072
				c-0.924-2.881-2.15-5.408-3.382-7.507c6.728,2.85,11.459,9.52,11.459,17.274C193.75,34.347,188.98,41.036,182.213,43.868z"/>
			<rect x="109.375" y="98.439" fill="#FFFFFF" width="18.75" height="6.25"/>
			<rect x="37.498" y="129.688" fill="#FFFFFF" width="18.749" height="6.25"/>
			<rect x="25.001" y="129.688" fill="#FFFFFF" width="6.25" height="6.25"/>
			<rect x="78.126" y="160.938" fill="#FFFFFF" width="28.124" height="6.25"/>
			<rect x="43.75" y="82.812" fill="#FFFFFF" width="21.875" height="6.25"/>
			<rect x="62.499" y="67.189" fill="#FFFFFF" width="12.5" height="6.25"/>
			<path fill="#FFFFFF" d="M78.125,42.188C35.046,42.188,0,77.234,0,120.312c0,25.506,12.287,48.193,31.25,62.46v0.04h0.051
				c13.057,9.807,29.273,15.625,46.823,15.625c25.504,0,48.192-12.287,62.459-31.25h0.041v-0.052
				c9.807-13.058,15.625-29.273,15.625-46.823C156.25,77.234,121.203,42.188,78.125,42.188z M149.389,129.688H62.5v6.25h85.785
				c-2.025,9.1-5.779,17.554-10.9,25h-21.76v6.25h16.942c-13.19,15.299-32.705,25-54.442,25c-12.886,0-24.99-3.412-35.459-9.375
				h29.209v-6.25h-38.44c-7.501-5.973-13.787-13.408-18.417-21.875h56.857v-6.25H11.983c-3.689-8.643-5.733-18.148-5.733-28.125
				c0-5.364,0.596-10.592,1.715-15.625h95.16v-6.25H9.658c2.977-9.294,7.793-17.772,14.025-25H50v-6.25H29.763
				c12.777-11.642,29.755-18.75,48.362-18.75c7.294,0,14.336,1.096,20.975,3.125H84.374v6.25h29.21
				c4.648,2.647,8.975,5.796,12.902,9.375H93.75v6.25h38.816C143.425,86.032,150,102.419,150,120.312
				C150,123.49,149.79,126.619,149.389,129.688z"/>
			<rect x="134.373" y="98.439" fill="#FFFFFF" width="6.25" height="6.25"/>
		</g>
	</g>
</g>
</svg>
