<?xml version="1.0" encoding="utf-8"?>
<!-- Generator: Adobe Illustrator 16.0.0, SVG Export Plug-In . SVG Version: 6.00 Build 0)  -->
<!DOCTYPE svg PUBLIC "-//W3C//DTD SVG 1.1//EN" "http://www.w3.org/Graphics/SVG/1.1/DTD/svg11.dtd">
<svg version="1.1" id="Layer_1" xmlns="http://www.w3.org/2000/svg" xmlns:xlink="http://www.w3.org/1999/xlink" x="0px" y="0px"
	 width="200px" height="200px" viewBox="0 0 200 200" enable-background="new 0 0 200 200" xml:space="preserve">
<g>
	<g>
		<path fill="#FFFFFF" d="M27.13,144.957c-1.875-1.875-4.917-1.875-6.793,0l-9.865,9.865c-1.876,1.877-1.876,4.918,0,6.794
			c0.938,0.938,2.167,1.407,3.396,1.407s2.459-0.469,3.396-1.407l9.865-9.865C29.006,149.875,29.006,146.834,27.13,144.957z"/>
	</g>
</g>
<g>
	<g>
		<path fill="#FFFFFF" d="M41.084,158.912c-1.875-1.875-4.917-1.875-6.792,0L1.407,191.798c-1.876,1.876-1.876,4.917,0,6.793
			c0.938,0.938,2.167,1.407,3.396,1.407c1.229,0,2.458-0.469,3.396-1.407l32.885-32.886C42.96,163.829,42.96,160.787,41.084,158.912
			z"/>
	</g>
</g>
<g>
	<g>
		<path fill="#FFFFFF" d="M55.04,172.867c-1.876-1.875-4.917-1.876-6.792,0L31.804,189.31c-1.875,1.876-1.876,4.917,0,6.794
			c0.938,0.938,2.167,1.406,3.396,1.406c1.229,0,2.459-0.469,3.396-1.406l16.443-16.442
			C56.915,177.785,56.916,174.744,55.04,172.867z"/>
	</g>
</g>
<g>
	<g>
		<path fill="#FFFFFF" d="M145.624,54.375c-5.594-5.594-13.032-8.675-20.942-8.675c-7.912,0-15.35,3.081-20.944,8.675
			c-5.594,5.594-8.675,13.032-8.675,20.944s3.081,15.349,8.675,20.944c5.594,5.594,13.032,8.674,20.944,8.674
			c7.91,0,15.348-3.08,20.942-8.674C157.172,84.714,157.172,65.924,145.624,54.375z M138.83,89.47
			c-3.779,3.78-8.805,5.861-14.149,5.861c-5.346,0-10.371-2.082-14.15-5.861c-3.78-3.78-5.861-8.805-5.861-14.15
			s2.081-10.371,5.861-14.15c3.779-3.78,8.805-5.861,14.15-5.861c5.345,0,10.37,2.082,14.149,5.861
			C146.633,68.971,146.633,81.667,138.83,89.47z"/>
	</g>
</g>
<g>
	<g>
		<path fill="#FFFFFF" d="M196.652,6.75c-0.443-1.66-1.74-2.956-3.4-3.4c-16.426-4.391-33.814-4.463-50.284-0.209
			c-2.567,0.664-5.098,1.443-7.595,2.309c-0.217,0.059-0.43,0.133-0.637,0.223c-13.715,4.867-26.258,12.751-36.653,23.116
			c-0.006,0.006-0.012,0.012-0.018,0.018c-0.027,0.027-0.055,0.052-0.082,0.079c-0.044,0.044-0.082,0.092-0.124,0.137
			c-0.04,0.044-0.083,0.083-0.123,0.129L83.024,46.274c-23.145-0.255-45.637,8.89-62.037,25.289
			c-5.332,5.333-9.934,11.309-13.675,17.763c-0.755,1.302-0.856,2.883-0.272,4.271c0.583,1.388,1.784,2.422,3.242,2.792
			l26.698,6.796l-5.224,14.188c-2.58,7.006-0.835,14.944,4.444,20.224l26.205,26.205c3.66,3.659,8.596,5.62,13.615,5.62
			c2.222,0,4.46-0.385,6.61-1.176l14.188-5.224l6.798,26.699c0.37,1.458,1.404,2.659,2.792,3.243c0.597,0.25,1.23,0.375,1.862,0.375
			c0.834,0,1.667-0.218,2.408-0.648c6.453-3.741,12.43-8.342,17.764-13.676c16.4-16.4,25.541-38.896,25.288-62.04l17.121-14.711
			c0.045-0.038,0.084-0.081,0.127-0.12c0.046-0.043,0.095-0.082,0.14-0.127c0.027-0.027,0.053-0.056,0.08-0.082
			c0.006-0.006,0.012-0.012,0.017-0.018c10.365-10.394,18.25-22.938,23.116-36.651c0.089-0.209,0.164-0.423,0.223-0.64
			c0.866-2.496,1.646-5.026,2.309-7.593C201.116,40.564,201.043,23.176,196.652,6.75z M19.085,88.718
			c2.576-3.684,5.486-7.152,8.695-10.362c12.563-12.562,29.148-20.327,46.66-22.091L41.626,94.456L19.085,88.718z M40.771,120.691
			l4.471-12.141l6.196,6.196l-9.365,14.987C40.167,127.162,39.645,123.75,40.771,120.691z M48.986,136.798l9.423-15.079l6.541,6.541
			l-12.251,12.25L48.986,136.798z M59.492,147.303l12.251-12.25l6.541,6.54l-15.079,9.423L59.492,147.303z M79.31,159.231
			c-3.058,1.125-6.469,0.604-9.042-1.302l14.987-9.365l6.196,6.196L79.31,159.231z M121.648,172.224
			c-3.209,3.209-6.679,6.119-10.361,8.695l-5.74-22.544l38.192-32.814C141.977,143.072,134.211,159.66,121.648,172.224z
			 M164.426,95.121l-64.021,55.008l-50.53-50.531l38.859-45.227c0.038-0.042,0.074-0.085,0.11-0.129l16.037-18.665
			c8.742-8.712,19.162-15.479,30.549-19.915l48.91,48.911C179.905,75.959,173.139,86.38,164.426,95.121z M187.644,54.291
			l-41.931-41.932c13.861-3.522,28.433-3.66,42.34-0.41C191.304,25.856,191.166,40.427,187.644,54.291z"/>
	</g>
</g>
</svg>
