<?xml version="1.0" encoding="utf-8"?>
<!-- Generator: Adobe Illustrator 16.0.0, SVG Export Plug-In . SVG Version: 6.00 Build 0)  -->
<!DOCTYPE svg PUBLIC "-//W3C//DTD SVG 1.1//EN" "http://www.w3.org/Graphics/SVG/1.1/DTD/svg11.dtd">
<svg version="1.1" id="Capa_1" xmlns="http://www.w3.org/2000/svg" xmlns:xlink="http://www.w3.org/1999/xlink" x="0px" y="0px"
	 width="200px" height="200px" viewBox="0 0 200 200" enable-background="new 0 0 200 200" xml:space="preserve">
<g>
	<path id="Planet-2" fill="#FFFFFF" d="M195.027,153.438c-4.435,7.49-15.788,9.062-24.528,9.062c-6.269,0-13.257-0.794-20.731-2.275
		c14.699-12.162,24.854-29.606,27.597-49.419c9.7,10.425,16.298,20.513,18.628,29.21
		C197.434,145.402,197.111,149.918,195.027,153.438 M145.732,159.385c-19.841-4.494-42.812-13.669-65.357-26.366
		c-22.029-12.407-41.201-26.876-54.96-40.91c3.956-37.66,35.894-67.11,74.585-67.11c41.354,0,75.001,33.647,75.001,75.001
		C175.002,124.149,163.514,145.656,145.732,159.385 M100.001,175C58.644,175,25,141.355,25,99.999c0-1.269,0.031-2.528,0.094-3.781
		c13.619,13.482,32.094,27.329,53.751,39.525c22.3,12.557,44.451,21.373,63.617,26.035C130.379,170.109,115.754,175,100.001,175
		 M4.009,59.983c-1.443-5.385-1.119-9.9,0.962-13.419c4.435-7.491,15.788-9.066,24.532-9.066c6.259,0,13.25,0.815,20.713,2.291
		C35.528,51.949,25.381,69.38,22.637,89.18C12.946,78.762,6.337,68.677,4.009,59.983 M177.817,106.74
		c0.19-2.223,0.31-4.466,0.31-6.741c0-43.147-34.979-78.126-78.126-78.126c-17.457,0-33.569,5.728-46.576,15.4
		c-8.772-1.9-16.86-2.9-23.926-2.9c-13.247,0-22.972,3.429-27.216,10.597C-4.37,56.208,3.89,74.221,22.181,93.259
		c-0.188,2.225-0.307,4.469-0.307,6.74c0,43.147,34.979,78.126,78.126,78.126c17.446,0,33.56-5.725,46.563-15.391
		c8.781,1.904,16.862,2.891,23.935,2.891c13.249,0,22.972-3.424,27.219-10.597C204.368,143.79,196.107,125.777,177.817,106.74
		 M153.127,171.875c-3.453,0-6.25,2.801-6.25,6.25c0,3.453,2.797,6.25,6.25,6.25c3.449,0,6.25-2.797,6.25-6.25
		C159.377,174.676,156.576,171.875,153.127,171.875 M25,150c-1.729,0-3.125,1.4-3.125,3.125c0,1.729,1.397,3.125,3.125,3.125
		c1.725,0,3.125-1.397,3.125-3.125C28.125,151.4,26.725,150,25,150 M131.251,137.5c-1.729,0-3.125,1.399-3.125,3.125
		c0,1.728,1.397,3.124,3.125,3.124c1.726,0,3.125-1.397,3.125-3.124C134.376,138.899,132.977,137.5,131.251,137.5 M160.264,29.289
		l7.217,1.631c0.605,0.147,1.08,0.569,1.25,1.109l1.98,7.706c0.325,1.185,2.004,1.185,2.328,0l1.984-7.706
		c0.166-0.541,0.641-0.962,1.247-1.109l7.219-1.631c1.182-0.325,1.182-2.003,0-2.328l-7.219-1.631
		c-0.606-0.15-1.081-0.569-1.247-1.109l-1.984-7.709c-0.325-1.182-2.004-1.182-2.328,0l-1.984,7.709
		c-0.166,0.538-0.641,0.959-1.246,1.109l-7.217,1.628C159.08,27.286,159.08,28.964,160.264,29.289"/>
</g>
</svg>
