<?xml version="1.0" encoding="utf-8"?>
<!-- Generator: Adobe Illustrator 16.0.0, SVG Export Plug-In . SVG Version: 6.00 Build 0)  -->
<!DOCTYPE svg PUBLIC "-//W3C//DTD SVG 1.1//EN" "http://www.w3.org/Graphics/SVG/1.1/DTD/svg11.dtd">
<svg version="1.1" id="Capa_1" xmlns="http://www.w3.org/2000/svg" xmlns:xlink="http://www.w3.org/1999/xlink" x="0px" y="0px"
	 width="200px" height="200px" viewBox="0 0 200 200" enable-background="new 0 0 200 200" xml:space="preserve">
<g>
	<path id="Stars" fill="#FFFFFF" d="M96.875,92.188c-11.75,0-21.135-4.097-29.513-8.654C72.475,78.278,79.606,75,87.5,75
		c10.835,0,20.241,6.166,24.935,15.166C109.663,91.032,104.531,92.188,96.875,92.188 M115.625,103.126
		c0,0.722-0.056,1.429-0.109,2.135l-6.715,2.663c-7.01,2.781-17.976,2.943-26.673-2.967c-2.778-1.887-5.343-3.963-7.825-5.971
		c-3.616-2.932-7.387-5.916-11.906-8.469c0.812-1.615,1.778-3.138,2.875-4.557c8.891,4.884,18.878,9.353,31.604,9.353
		c8.366,0,13.881-1.303,16.847-2.275C114.935,96.176,115.625,99.566,115.625,103.126 M103.169,126.471
		c-6.123-2.389-22.804-3.223-31.326,0.006c-7.513-5.054-12.469-13.632-12.469-23.351c0-3.425,0.646-6.697,1.772-9.734
		c4.137,2.369,7.603,5.116,11.188,8.022c2.534,2.049,5.15,4.168,8.038,6.131c5.625,3.818,12.106,5.348,18.075,5.348
		c4.262,0,8.262-0.779,11.502-2.063l5.098-2.021C113.537,116.133,109.172,122.426,103.169,126.471 M87.5,131.252
		c-4.25,0-8.269-0.976-11.885-2.673c7.085-1.694,17.729-1.341,23.75,0.01C95.756,130.279,91.744,131.252,87.5,131.252 M87.5,71.875
		c-17.26,0-31.25,13.991-31.25,31.25c0,17.26,13.991,31.251,31.25,31.251c17.26,0,31.25-13.991,31.25-31.251
		C118.75,85.866,104.76,71.875,87.5,71.875 M28.124,84.375c3.453,0,6.25-2.796,6.25-6.25s-2.797-6.25-6.25-6.25
		s-6.25,2.797-6.25,6.25S24.67,84.375,28.124,84.375 M56.831,49.557l0.994-3.853c0.081-0.272,0.319-0.481,0.622-0.556l3.609-0.815
		c0.59-0.163,0.59-1,0-1.163l-3.609-0.816c-0.303-0.075-0.541-0.284-0.622-0.556l-0.994-3.853c-0.163-0.591-1-0.591-1.163,0
		l-0.994,3.853c-0.081,0.272-0.319,0.481-0.622,0.556l-3.609,0.816c-0.591,0.163-0.591,1,0,1.163l3.609,0.815
		c0.303,0.075,0.541,0.284,0.622,0.556l0.994,3.853C55.831,50.147,56.668,50.147,56.831,49.557 M115.182,161.92l-3.609-0.814
		c-0.304-0.075-0.541-0.285-0.623-0.557l-0.993-3.854c-0.163-0.59-1-0.59-1.163,0l-0.993,3.854
		c-0.081,0.271-0.319,0.481-0.622,0.557l-3.609,0.814c-0.591,0.163-0.591,1,0,1.163l3.609,0.815
		c0.303,0.075,0.541,0.284,0.622,0.557l0.993,3.854c0.163,0.59,1,0.59,1.163,0l0.993-3.854c0.082-0.272,0.319-0.481,0.623-0.557
		l3.609-0.815C115.771,162.92,115.771,162.082,115.182,161.92 M152.238,136.336l-7.216-1.629c-0.609-0.149-1.081-0.571-1.25-1.109
		l-1.981-7.709c-0.328-1.185-2.006-1.185-2.331,0l-1.981,7.709c-0.168,0.538-0.641,0.96-1.25,1.107l-7.215,1.631
		c-1.186,0.324-1.186,2.006,0,2.331l7.219,1.631c0.605,0.147,1.081,0.569,1.246,1.106l1.981,7.709c0.329,1.186,2.007,1.186,2.331,0
		l1.981-7.709c0.169-0.537,0.641-0.959,1.25-1.106l7.216-1.631C153.424,138.342,153.424,136.66,152.238,136.336 M132.217,36.335
		L125,34.707c-0.605-0.15-1.081-0.572-1.25-1.109l-1.98-7.71c-0.326-1.184-2.003-1.184-2.328,0l-1.984,7.71
		c-0.166,0.537-0.641,0.959-1.247,1.106l-7.219,1.631c-1.182,0.325-1.182,2.006,0,2.331l7.219,1.631
		c0.606,0.146,1.081,0.569,1.247,1.106l1.984,7.71c0.325,1.184,2.002,1.184,2.328,0l1.984-7.71c0.165-0.537,0.641-0.959,1.246-1.106
		l7.216-1.631C133.401,38.341,133.401,36.66,132.217,36.335 M48.225,147.674L33.79,144.41c-1.213-0.297-2.163-1.137-2.497-2.219
		l-3.965-15.416c-0.65-2.365-4.01-2.365-4.66,0l-3.966,15.416c-0.331,1.078-1.281,1.922-2.494,2.219l-14.435,3.26
		c-2.366,0.653-2.366,4.01,0,4.66l14.435,3.262c1.213,0.297,2.163,1.141,2.497,2.219l3.966,15.416c0.65,2.365,4.009,2.365,4.659,0
		l3.966-15.416c0.331-1.078,1.281-1.922,2.494-2.219l14.435-3.26C50.59,151.68,50.59,148.323,48.225,147.674 M198.227,81.716
		l-14.435-3.259c-1.213-0.297-2.163-1.141-2.497-2.219l-3.966-15.416c-0.649-2.369-4.009-2.369-4.659,0l-3.966,15.416
		c-0.331,1.078-1.28,1.919-2.493,2.216l-14.436,3.263c-2.365,0.65-2.365,4.009,0,4.659l14.436,3.263
		c1.213,0.294,2.162,1.138,2.496,2.216l3.966,15.416c0.649,2.368,4.01,2.368,4.659,0l3.967-15.416
		c0.33-1.078,1.28-1.919,2.493-2.216l14.435-3.263C200.592,85.726,200.592,82.366,198.227,81.716"/>
</g>
</svg>
