<?xml version="1.0" encoding="utf-8"?>
<!-- Generator: Adobe Illustrator 16.0.0, SVG Export Plug-In . SVG Version: 6.00 Build 0)  -->
<!DOCTYPE svg PUBLIC "-//W3C//DTD SVG 1.1//EN" "http://www.w3.org/Graphics/SVG/1.1/DTD/svg11.dtd">
<svg version="1.1" id="Capa_1" xmlns="http://www.w3.org/2000/svg" xmlns:xlink="http://www.w3.org/1999/xlink" x="0px" y="0px"
	 width="400px" height="400px" viewBox="0 0 400 400" enable-background="new 0 0 400 400" xml:space="preserve">
<g>
	<path fill="#FFFFFF" d="M142.516,115.219c0.492,1.525,0.894,3.095,1.193,4.662c0.386,2.023,2.157,3.43,4.143,3.43
		c0.264,0,0.531-0.024,0.799-0.076c2.291-0.438,3.792-2.651,3.354-4.942c-0.365-1.906-0.853-3.812-1.451-5.666
		c-0.715-2.219-3.092-3.441-5.315-2.723C143.019,110.619,141.799,112.999,142.516,115.219z"/>
	<path fill="#FFFFFF" d="M99.481,82.628c-0.004,2.333,1.883,4.227,4.216,4.231c12.195,0.021,24.139,5.859,31.951,15.618
		c0.834,1.041,2.061,1.584,3.301,1.584c0.925,0,1.857-0.303,2.636-0.926c1.821-1.458,2.115-4.116,0.658-5.937
		c-9.396-11.738-23.801-18.761-38.531-18.786c-0.003,0-0.005,0-0.007,0C101.375,78.412,99.485,80.298,99.481,82.628z"/>
	<path fill="#FFFFFF" d="M117.785,225.092H98.809c-2.332,0-4.223,1.891-4.223,4.223c0,2.333,1.891,4.224,4.223,4.224h18.977
		c2.333,0,4.224-1.891,4.224-4.224C122.009,226.982,120.118,225.092,117.785,225.092z"/>
	<path fill="#FFFFFF" d="M398.763,256.424l-12.952-12.953c-8.288-8.289-21.204-9.191-30.503-2.723l-8.463-8.461
		c1.273,0.169,2.132,0.281,2.177,0.281c0.918,0,1.816-0.299,2.556-0.859c0.892-0.68,1.477-1.684,1.629-2.793l10.507-76.995
		c0.315-2.311-1.301-4.44-3.612-4.756l-18.156-2.483c-11.614-1.584-22.442,5.52-25.933,16.298l-40.987-5.591
		c-2.903-0.397-5.799-0.512-8.662-0.371v-18.67c0-8.894-3.462-17.244-9.741-23.509c-6.262-6.277-14.609-9.735-23.503-9.735
		c-8.879,0-17.226,3.458-23.505,9.739c-6.278,6.281-9.733,14.63-9.726,23.505v22.546h-16.336L166.8,142.142
		c1.225-4.99,1.888-10.198,1.888-15.561c0-36.006-29.293-65.299-65.3-65.299c-32.81,0-60.035,24.326-64.612,55.888L8.695,147.25
		C3.088,152.856,0,160.312,0,168.242c0,7.93,3.088,15.385,8.696,20.993l68.208,68.208v7.067c0,25.611,20.836,46.448,46.446,46.448
		h6.632l3.335,3.333c16.286,16.286,37.671,24.427,59.063,24.427c21.388,0,42.784-8.145,59.065-24.427l41.767-41.615l44.63,44.668
		c0.824,0.824,1.905,1.237,2.985,1.237c1.081,0,2.163-0.413,2.986-1.237l54.948-54.948
		C400.412,260.747,400.412,258.072,398.763,256.424z M297.437,264.955v-31.971c6.63-0.896,13.027-3.883,18.11-8.967
		c1.89-1.889,3.502-3.98,4.844-6.238l18.259,18.257l-35.065,35.065L297.437,264.955z M248.264,223.605l-18.389-18.389l1.223-8.94
		c0.005-0.039,0.012-0.076,0.019-0.114c2.466,1.208,5.085,2.095,7.839,2.636c2.059,0.404,4.123,0.604,6.176,0.604
		c4.93,0,9.768-1.174,14.193-3.417l7.631,10.041c-2.33,1.606-4.539,3.427-6.584,5.472L248.264,223.605z M267.895,163.416
		c0.545,2.911,0.533,5.86-0.043,8.787c-1.195,6.087-4.69,11.343-9.841,14.802c-5.15,3.458-11.337,4.707-17.426,3.507
		c-2.61-0.513-5.056-1.443-7.298-2.764c2.502-6.53,6.766-12.256,12.471-16.594C252.228,166.235,259.922,163.576,267.895,163.416z
		 M293.213,197.893c-6.589,0-12.963,1.375-18.812,3.968l-8.092-10.646c5.057-4.553,8.496-10.588,9.832-17.383
		c0.635-3.233,0.757-6.485,0.389-9.712l23.36,3.187l-4.175,30.658C294.885,197.919,294.052,197.893,293.213,197.893z
		 M293.213,206.34c7.396,0,14.463,2.107,20.533,6.022c-1.091,2.087-2.482,3.993-4.172,5.683c-9.055,9.054-23.787,9.055-32.843,0
		c-1.682-1.682-3.063-3.568-4.144-5.625C278.68,208.467,285.781,206.34,293.213,206.34z M345.41,223.588l-6.681-0.913l9.372-68.625
		l6.673,0.912L345.41,223.588z M318.686,169.869c2.321,0.303,4.439-1.303,4.754-3.614c1.101-8.062,8.283-13.812,16.286-13.294
		l-8.678,63.529l-4.992-4.992c-6.151-6.152-13.727-10.357-21.979-12.326l4.183-30.726L318.686,169.869z M240.646,164.429
		c-5.446,4.14-9.817,9.318-12.932,15.187l-19.379-19.38c0,0,0.01-24.551,0.022-24.88h49.532c0.014,0.331,0.025,20.874,0.025,20.874
		C251.731,157.711,245.861,160.464,240.646,164.429z M233.119,111.552c6.634,0,12.857,2.575,17.53,7.261
		c2.359,2.354,4.185,5.103,5.415,8.098h-45.881c1.229-2.991,3.05-5.739,5.405-8.095
		C220.271,114.131,226.497,111.552,233.119,111.552z M203.495,167.341c0,0,20.573,20.529,20.78,20.672
		c-0.69,2.31-1.215,4.687-1.546,7.122l-0.353,2.583L192,167.342L203.495,167.341L203.495,167.341z M242.292,229.578l-13.003,13.002
		l-75.071-75.069c3.968-4.917,7.233-10.418,9.655-16.354L242.292,229.578z M160.243,126.581c0,1.966-0.1,3.909-0.296,5.824
		c-13.853,13.461-32.561,19.151-48.692,14.969c-0.309-5.295-2.494-10.235-6.277-14.016c-4.087-4.088-9.521-6.339-15.301-6.339
		c-0.927,0-1.841,0.079-2.746,0.193c-7.952-17.248-2.725-39.735,13.311-55.771c0.594-0.594,1.175-1.146,1.75-1.676
		c0.466-0.012,0.931-0.036,1.401-0.036C134.738,69.729,160.243,95.232,160.243,126.581z M89.676,135.464
		c3.523,0,6.837,1.373,9.33,3.864c2.492,2.492,3.864,5.806,3.864,9.331s-1.373,6.838-3.864,9.33
		c-2.492,2.492-5.806,3.864-9.33,3.864c-3.524,0-6.839-1.373-9.331-3.865c-2.492-2.491-3.864-5.804-3.864-9.329
		s1.373-6.839,3.864-9.331S86.151,135.464,89.676,135.464z M88.79,71.638C74.871,89.272,70.961,111.8,78.88,129.92
		c-1.623,0.939-3.146,2.076-4.506,3.438c-4.088,4.087-6.339,9.522-6.339,15.302s2.252,11.215,6.339,15.301
		c4.087,4.088,9.521,6.339,15.302,6.339s11.214-2.251,15.301-6.338c2.343-2.343,4.059-5.137,5.118-8.176
		c3.878,0.921,7.865,1.379,11.892,1.379c11.934,0,24.197-3.962,34.902-11.353c-7.901,21.913-28.896,37.623-53.498,37.623
		c-31.349,0-56.854-25.504-56.854-56.854C46.536,100.279,64.494,78.1,88.79,71.638z M76.904,203.812l-56.414-56.413l17.678-17.678
		c1.201,25.234,16.797,46.749,38.735,56.525L76.904,203.812L76.904,203.812z M31.984,200.578l14.871-14.871l6.66,6.66l-14.87,14.871
		L31.984,200.578z M8.447,168.242c0-5.603,2.162-10.869,6.08-14.863l26.357,26.357l-14.871,14.871l-11.344-11.344
		C10.657,179.25,8.447,173.915,8.447,168.242z M44.617,213.21l14.871-14.87l17.417,17.417v29.741L44.617,213.21z M85.934,271.094
		c8.148-3.723,17.804-2.086,24.286,4.395c6.841,6.84,8.202,17.518,3.632,25.82C99.561,297.616,88.513,285.794,85.934,271.094z
		 M122.664,302.494c3.97-9.351,2.954-20.065-2.798-28.524l21.047-21.048h25.025c0.332,0,0.66,0.012,0.989,0.025v49.539
		C166.599,302.498,122.893,302.498,122.664,302.494z M190.733,277.717c0,10.332-6.354,19.205-15.359,22.924V254.79
		C184.378,258.511,190.733,267.385,190.733,277.717z M245.475,308.319c-28.368,28.365-73.972,29.245-103.408,2.639h23.872
		c18.33,0,33.241-14.912,33.241-33.241c0-18.33-14.912-33.242-33.241-33.242h-22.551v-46.837c0-2.333-1.891-4.224-4.223-4.224
		s-4.223,1.891-4.223,4.224v49.312l-20.746,20.746c-8.106-6.792-19.023-8.745-28.844-5.44v-72.928
		c5.734,1.65,11.781,2.554,18.039,2.554c17.483,0,33.372-6.92,45.104-18.148l74.821,74.82l-10.231,10.232
		c-1.65,1.648-1.65,4.322,0,5.971c1.647,1.65,4.324,1.65,5.971,0l46.903-46.9c1.329,2.223,2.927,4.288,4.8,6.161
		c5.115,5.116,11.561,8.104,18.232,8.981v31.957L245.475,308.319z M309.557,277.072l35.065-35.064l7.436,7.436
		c1.65,1.65,4.324,1.65,5.972,0c5.753-5.751,14.947-5.984,21-0.731l-48.938,48.937L309.557,277.072z M340.828,308.385l-4.765-4.766
		l48.977-48.975l4.764,4.766L340.828,308.385z"/>
</g>
</svg>
