<svg viewBox="0 0 400 120" width="400" height="120" fill="#000000">
  <path d="M149.56 89.11c0.91 0 1.69 0.1 2.34 0.31 0.65 0.21 1.18 0.49 1.6 0.87 0.42 0.37 0.73 0.82 0.92 1.33 0.2 0.52 0.3 1.09 0.3 1.71 0 0.9-0.19 1.62-0.56 2.17 -0.37 0.55-0.92 0.97-1.65 1.25 0.73 0.31 1.29 0.74 1.69 1.31 0.4 0.57 0.59 1.3 0.59 2.2 0 0.62-0.1 1.19-0.3 1.71s-0.51 0.96-0.92 1.33c-0.42 0.37-0.95 0.67-1.6 0.88 -0.65 0.21-1.43 0.32-2.34 0.32h-6.84c-0.85 0-1.28-0.42-1.28-1.25V90.36c0-0.84 0.43-1.25 1.28-1.25H149.56zM144.16 95.61h5.47c1.58 0 2.37-0.61 2.37-1.85 0-0.61-0.19-1.09-0.56-1.46 -0.37-0.36-0.97-0.55-1.79-0.55h-5.2c-0.2 0-0.3 0.09-0.3 0.27V95.61zM144.16 101.58c0 0.17 0.1 0.25 0.3 0.25h5.25c0.82 0 1.42-0.17 1.8-0.52 0.38-0.35 0.57-0.84 0.57-1.48 0-1.32-0.79-1.98-2.37-1.98h-5.54V101.58z"/>
  <path d="M160.15 92.46v7.21c0 0.72 0.26 1.31 0.76 1.78 0.51 0.47 1.24 0.71 2.2 0.71h1.96c0.96 0 1.69-0.23 2.19-0.71 0.5-0.47 0.75-1.06 0.75-1.78V92.46h2.37v7.3c0 0.7-0.11 1.34-0.33 1.92 -0.22 0.58-0.55 1.08-0.99 1.49 -0.44 0.42-0.98 0.75-1.63 0.98 -0.65 0.24-1.4 0.35-2.27 0.35h-2.23c-0.87 0-1.62-0.12-2.27-0.35 -0.65-0.23-1.19-0.56-1.63-0.98 -0.44-0.42-0.77-0.92-0.99-1.49 -0.22-0.58-0.33-1.22-0.33-1.91V92.46H160.15z"/>
  <path d="M184.64 92.46v2.33h-5.98c-1.05 0-1.81 0.29-2.29 0.87 -0.48 0.58-0.72 1.52-0.72 2.83s0.24 2.25 0.72 2.82c0.48 0.57 1.24 0.86 2.29 0.86h5.98v2.35h-6.2c-1.61 0-2.88-0.49-3.82-1.48 -0.93-0.99-1.4-2.5-1.4-4.54s0.47-3.55 1.4-4.54c0.94-0.99 2.21-1.48 3.82-1.48H184.64z"/>
  <path d="M189.93 87.24v5.22h4.24c2.04 0 3.56 0.46 4.56 1.39 1 0.93 1.51 2.22 1.51 3.88v6.77h-2.44v-6.77c0-0.93-0.29-1.65-0.87-2.17 -0.58-0.52-1.5-0.77-2.76-0.77h-4.24v9.72h-2.42V87.24H189.93z"/>
  <path d="M211.35 92.46c0.74 0 1.38 0.1 1.92 0.3s0.97 0.48 1.31 0.83c0.34 0.36 0.59 0.78 0.74 1.27 0.15 0.49 0.23 1.01 0.23 1.57v5.66c0 0.44-0.03 0.81-0.1 1.12 -0.07 0.31-0.19 0.55-0.38 0.74 -0.18 0.19-0.44 0.33-0.76 0.42 -0.33 0.09-0.74 0.14-1.24 0.14h-5.63c-1.43 0-2.46-0.33-3.09-0.98 -0.63-0.65-0.95-1.55-0.95-2.69 0-0.55 0.07-1.03 0.22-1.46s0.38-0.79 0.7-1.08c0.32-0.3 0.74-0.52 1.25-0.68 0.52-0.16 1.15-0.24 1.89-0.24h5.73v-0.91c0-0.47-0.14-0.87-0.42-1.19s-0.76-0.48-1.43-0.48h-7.21V92.46H211.35zM212.51 102.15c0.44 0 0.66-0.2 0.66-0.62v-2.26h-5.68c-0.64 0-1.09 0.13-1.35 0.38 -0.26 0.25-0.39 0.6-0.39 1.04 0 0.44 0.13 0.8 0.39 1.06 0.26 0.27 0.69 0.4 1.3 0.4H212.51z"/>
  <path d="M227.15 92.46v2.33h-4.24c-1.03 0-1.55 0.52-1.55 1.55v8.16h-2.42v-8.53c0-1.22 0.25-2.1 0.74-2.67 0.49-0.56 1.33-0.84 2.52-0.84H227.15z"/>
  <path d="M237.37 92.46c1.43 0 2.46 0.32 3.1 0.97s0.96 1.56 0.96 2.73c0 1.11-0.31 1.97-0.94 2.57s-1.67 0.9-3.15 0.9h-5.72v0.87c0 0.49 0.14 0.89 0.42 1.2 0.28 0.31 0.76 0.47 1.43 0.47h7.37v2.35h-7.37c-0.76 0-1.4-0.1-1.93-0.3 -0.52-0.2-0.96-0.48-1.3-0.83 -0.34-0.36-0.59-0.77-0.74-1.25 -0.15-0.48-0.23-1.01-0.23-1.58v-4.11c0-0.56 0.08-1.09 0.23-1.57 0.15-0.49 0.4-0.91 0.74-1.27 0.34-0.36 0.78-0.63 1.3-0.83s1.17-0.3 1.93-0.3H237.37zM231.62 97.73h5.66c0.65 0 1.11-0.13 1.38-0.39 0.27-0.26 0.4-0.61 0.4-1.05 0-0.46-0.14-0.82-0.41-1.09 -0.27-0.27-0.71-0.41-1.3-0.41h-3.88c-0.67 0-1.14 0.16-1.42 0.48 -0.28 0.32-0.42 0.72-0.42 1.19V97.73z"/>
  <path d="M254.43 92.46v2.33h-6.66c-0.56 0-0.97 0.11-1.21 0.34 -0.24 0.23-0.36 0.57-0.36 1.03 0 0.43 0.12 0.75 0.35 0.97 0.24 0.22 0.69 0.33 1.36 0.33h2.83c0.84 0 1.52 0.09 2.06 0.27 0.54 0.18 0.97 0.43 1.28 0.73 0.31 0.31 0.53 0.66 0.65 1.07s0.18 0.85 0.18 1.32c0 0.53-0.07 1.02-0.22 1.47s-0.38 0.83-0.69 1.15 -0.73 0.57-1.23 0.75 -1.1 0.27-1.8 0.27h-7v-2.35h7c0.56 0 0.97-0.1 1.21-0.31 0.24-0.21 0.36-0.54 0.36-1.02 0-0.49-0.13-0.83-0.4-1.04 -0.27-0.21-0.7-0.31-1.31-0.31h-2.85c-0.84 0-1.52-0.09-2.05-0.28 -0.53-0.19-0.95-0.45-1.27-0.77 -0.31-0.33-0.53-0.7-0.65-1.13 -0.12-0.42-0.18-0.87-0.18-1.32 0-1.08 0.3-1.93 0.91-2.56s1.61-0.95 3.01-0.95H254.43z"/>
  <path d="M258.19 92.46v-2.85h2.44v2.85h3.33v2.33h-3.33v5.7c0 0.69 0.13 1.16 0.38 1.41s0.67 0.39 1.24 0.39h1.66v2.21h-2.17c-0.62 0-1.16-0.07-1.61-0.2s-0.82-0.36-1.1-0.68c-0.29-0.32-0.5-0.74-0.64-1.28s-0.2-1.19-0.2-1.98v-5.56h-1.64V92.46H258.19z"/>
  <path d="M279.47 96.11v2.33h-8.14v-2.33H279.47z"/>
  <path d="M300.43 89.11v2.69h-5.95c-1.49 0-2.57 0.39-3.25 1.18s-1.01 2.06-1.01 3.84c0 1.76 0.33 3.04 1 3.82 0.67 0.78 1.76 1.17 3.26 1.17h5.95v2.69h-5.95c-2.25 0-3.97-0.63-5.17-1.9 -1.19-1.27-1.79-3.2-1.79-5.78 0-2.6 0.6-4.53 1.79-5.8 1.19-1.27 2.92-1.9 5.17-1.9H300.43z"/>
  <path d="M305.93 87.24v5.22h4.24c2.04 0 3.56 0.46 4.56 1.39s1.51 2.22 1.51 3.88v6.77h-2.44v-6.77c0-0.93-0.29-1.65-0.87-2.17 -0.58-0.52-1.5-0.77-2.76-0.77h-4.24v9.72h-2.42V87.24H305.93z"/>
  <path d="M322.07 87.92v2.81h-2.44v-2.8H322.07zM322.05 92.46v12.04h-2.42V92.46H322.05z"/>
  <path d="M335.55 92.46v2.33h-6.66c-0.56 0-0.97 0.11-1.21 0.34 -0.24 0.23-0.36 0.57-0.36 1.03 0 0.43 0.12 0.75 0.35 0.97 0.24 0.22 0.69 0.33 1.36 0.33h2.83c0.84 0 1.52 0.09 2.06 0.27 0.54 0.18 0.97 0.43 1.28 0.73 0.31 0.31 0.53 0.66 0.65 1.07s0.18 0.85 0.18 1.32c0 0.53-0.07 1.02-0.22 1.47s-0.38 0.83-0.69 1.15 -0.73 0.57-1.23 0.75 -1.1 0.27-1.8 0.27h-7v-2.35h7c0.56 0 0.97-0.1 1.21-0.31 0.24-0.21 0.36-0.54 0.36-1.02 0-0.49-0.13-0.83-0.4-1.04 -0.27-0.21-0.7-0.31-1.31-0.31h-2.85c-0.84 0-1.52-0.09-2.05-0.28 -0.53-0.19-0.95-0.45-1.27-0.77 -0.31-0.33-0.53-0.7-0.65-1.13 -0.12-0.42-0.18-0.87-0.18-1.32 0-1.08 0.3-1.93 0.91-2.56s1.61-0.95 3.01-0.95H335.55z"/>
  <path d="M341.32 87.92v2.81h-2.44v-2.8H341.32zM341.3 92.46v12.04h-2.42V92.46H341.3z"/>
  <path d="M351.42 92.46c2.05 0 3.58 0.46 4.57 1.38 1 0.92 1.49 2.22 1.49 3.89v6.77h-2.44v-6.77c0-0.96-0.28-1.69-0.85-2.19s-1.49-0.75-2.77-0.75h-3.94c-0.2 0-0.3 0.11-0.3 0.34v9.37h-2.42V94.33c0-0.71 0.13-1.2 0.39-1.47 0.26-0.27 0.69-0.4 1.3-0.4H351.42z"/>
  <path d="M368.6 92.46c0.74 0 1.38 0.1 1.92 0.3s0.97 0.48 1.31 0.83c0.34 0.36 0.59 0.78 0.74 1.27 0.15 0.49 0.23 1.01 0.23 1.57v5.66c0 0.44-0.03 0.81-0.1 1.12 -0.07 0.31-0.19 0.55-0.38 0.74 -0.18 0.19-0.44 0.33-0.76 0.42 -0.33 0.09-0.74 0.14-1.24 0.14h-5.63c-1.43 0-2.46-0.33-3.09-0.98 -0.63-0.65-0.95-1.55-0.95-2.69 0-0.55 0.07-1.03 0.22-1.46s0.38-0.79 0.7-1.08c0.32-0.3 0.74-0.52 1.25-0.68 0.52-0.16 1.15-0.24 1.89-0.24h5.73v-0.91c0-0.47-0.14-0.87-0.42-1.19s-0.76-0.48-1.43-0.48h-7.21V92.46H368.6zM369.76 102.15c0.44 0 0.66-0.2 0.66-0.62v-2.26h-5.68c-0.64 0-1.09 0.13-1.35 0.38 -0.26 0.25-0.39 0.6-0.39 1.04 0 0.44 0.13 0.8 0.39 1.06 0.26 0.27 0.69 0.4 1.3 0.4H369.76z"/>
  <path d="M378.59 92.46v7.21c0 0.72 0.25 1.31 0.76 1.78s1.24 0.71 2.2 0.71h1.96c0.96 0 1.69-0.23 2.19-0.71s0.75-1.06 0.75-1.78V92.46h2.37v7.3c0 0.7-0.11 1.34-0.33 1.92 -0.22 0.58-0.55 1.08-0.99 1.49s-0.98 0.75-1.63 0.98c-0.65 0.24-1.4 0.35-2.27 0.35h-2.23c-0.87 0-1.62-0.12-2.27-0.35 -0.65-0.23-1.19-0.56-1.63-0.98 -0.44-0.42-0.77-0.92-0.99-1.49 -0.22-0.58-0.33-1.22-0.33-1.91V92.46H378.59z"/>
  <path d="M46.35 6.57v33.14c0 2.55-0.35 4.89-1.05 7.01 -0.7 2.13-1.8 3.96-3.3 5.51 -1.5 1.55-3.44 2.76-5.81 3.64 -2.37 0.88-5.24 1.31-8.58 1.31H10.44v-8.85h16.64c2 0 3.66-0.22 4.99-0.67 1.32-0.45 2.39-1.06 3.19-1.84 0.8-0.77 1.36-1.7 1.69-2.77 0.32-1.07 0.49-2.21 0.49-3.41V6.57H46.35z"/>
  <path d="M97.18 6.57v8.85h-25.94c-2.3 0-3.97 0.56-5.02 1.69s-1.57 2.56-1.57 4.31c0 0.75 0.11 1.49 0.34 2.21 0.23 0.73 0.63 1.38 1.2 1.95 0.57 0.57 1.34 1.02 2.29 1.35 0.95 0.33 2.17 0.49 3.67 0.49h11.85c3.45 0 6.27 0.44 8.47 1.31 2.2 0.88 3.94 2.01 5.21 3.41 1.27 1.4 2.15 3 2.62 4.8 0.47 1.8 0.71 3.6 0.71 5.4 0 2.15-0.3 4.12-0.9 5.92 -0.6 1.8-1.55 3.36-2.85 4.69s-2.96 2.36-4.99 3.11c-2.02 0.75-4.49 1.12-7.38 1.12H56.7v-8.85h28.49c2.4 0 4.16-0.59 5.29-1.76 1.12-1.17 1.69-2.69 1.69-4.53 0-0.8-0.12-1.59-0.37-2.36 -0.25-0.77-0.67-1.45-1.27-2.02 -0.6-0.57-1.41-1.04-2.44-1.39s-2.31-0.52-3.86-0.52H72.44c-3.4 0-6.17-0.42-8.32-1.27 -2.15-0.85-3.84-1.97-5.06-3.37s-2.07-2.97-2.55-4.72c-0.48-1.75-0.71-3.5-0.71-5.25 0-2.1 0.29-4.03 0.86-5.81 0.57-1.77 1.5-3.31 2.77-4.61 1.27-1.3 2.91-2.31 4.91-3.04 2-0.72 4.4-1.09 7.2-1.09H97.18z"/>
  <path d="M139.69 6.57v20.62h25.86V6.57h8.92v50.6h-8.92V36.03h-25.86v21.14h-8.85V6.57H139.69z"/>
  <path d="M191.72 57.17h-9.75l17.77-44.98c0.95-2.4 2.29-4.09 4.01-5.06s3.94-1.46 6.64-1.46c2.65 0 4.84 0.49 6.56 1.46 1.72 0.98 3.04 2.66 3.94 5.06l17.09 44.98h-9.82l-15.37-40.71c-0.45-1.15-1.27-1.72-2.47-1.72 -1.2 0-2.05 0.57-2.55 1.72L191.72 57.17z"/>
  <path d="M283.03 6.57v8.85h-19.57c-4.9 0-8.46 1.29-10.68 3.86 -2.22 2.58-3.34 6.79-3.34 12.63 0 5.8 1.1 9.98 3.3 12.56s5.77 3.86 10.72 3.86h19.57v8.85h-19.57c-7.4 0-13.06-2.09-16.98-6.26 -3.92-4.17-5.88-10.51-5.88-19 0-8.55 1.96-14.91 5.89-19.08 3.92-4.17 9.58-6.26 16.98-6.26H283.03z"/>
  <path d="M302.45 6.57v21.44h4.87c2.15 0 3.91-0.06 5.29-0.19 1.37-0.12 2.51-0.41 3.41-0.86 0.9-0.45 1.66-1.09 2.29-1.91 0.62-0.82 1.29-1.94 1.99-3.34l7.72-15.14h9.52l-7.95 15.74c-1.15 2.25-2.37 4.12-3.67 5.62 -1.3 1.5-3 2.7-5.1 3.6 1.2 0.3 2.25 0.71 3.15 1.24 0.9 0.52 1.74 1.18 2.51 1.95 0.77 0.78 1.51 1.7 2.21 2.77 0.7 1.08 1.43 2.34 2.17 3.79l8.17 15.89h-9.9l-7.72-14.99c-0.7-1.35-1.38-2.42-2.02-3.22 -0.65-0.8-1.47-1.42-2.47-1.87s-2.25-0.74-3.75-0.86c-1.5-0.12-3.45-0.19-5.85-0.19h-4.87v21.14H293.6V6.57H302.45z"/>
  <path d="M385.74 6.57v8.85h-25.94c-2.3 0-3.97 0.56-5.02 1.69s-1.57 2.56-1.57 4.31c0 0.75 0.11 1.49 0.34 2.21 0.23 0.73 0.63 1.38 1.2 1.95 0.57 0.57 1.34 1.02 2.29 1.35 0.95 0.33 2.17 0.49 3.67 0.49h11.85c3.45 0 6.27 0.44 8.47 1.31 2.2 0.88 3.94 2.01 5.21 3.41 1.27 1.4 2.15 3 2.62 4.8 0.48 1.8 0.71 3.6 0.71 5.4 0 2.15-0.3 4.12-0.9 5.92 -0.6 1.8-1.55 3.36-2.85 4.69 -1.3 1.32-2.96 2.36-4.99 3.11 -2.02 0.75-4.49 1.12-7.38 1.12h-28.19v-8.85h28.49c2.4 0 4.16-0.59 5.29-1.76 1.13-1.17 1.69-2.69 1.69-4.53 0-0.8-0.12-1.59-0.37-2.36 -0.25-0.77-0.67-1.45-1.27-2.02 -0.6-0.57-1.41-1.04-2.44-1.39s-2.31-0.52-3.86-0.52h-11.77c-3.4 0-6.17-0.42-8.32-1.27 -2.15-0.85-3.84-1.97-5.06-3.37 -1.23-1.4-2.08-2.97-2.55-4.72 -0.48-1.75-0.71-3.5-0.71-5.25 0-2.1 0.29-4.03 0.86-5.81 0.57-1.77 1.5-3.31 2.77-4.61 1.27-1.3 2.91-2.31 4.91-3.04 2-0.72 4.4-1.09 7.2-1.09H385.74z"/>
  <path d="M92.37 94.95c0-0.46-0.39-0.83-0.85-0.83l-2.44 0.04c-0.46 0.01-0.83 0.39-0.83 0.85 0.01 0.23 0.1 0.44 0.26 0.59 0.15 0.15 0.37 0.24 0.6 0.24l2.44-0.04C92.01 95.8 92.38 95.42 92.37 94.95L92.37 94.95zM92.37 94.95"/>
  <path d="M81.21 98.4c-0.01-0.46-0.39-0.83-0.85-0.83l-68.88 0.13c-0.46 0.01-0.83 0.39-0.82 0.85 0 0.23 0.1 0.44 0.26 0.59 0.15 0.15 0.37 0.24 0.6 0.24l68.88-0.12C80.85 99.25 81.22 98.87 81.21 98.4L81.21 98.4zM92.43 98.4"/>
  <path d="M92.48 101.86c-0.01-0.46-0.39-0.83-0.85-0.83l-4.07 0.06c-0.46 0.01-0.83 0.39-0.83 0.85 0 0.23 0.1 0.44 0.25 0.59 0.15 0.15 0.37 0.24 0.6 0.24l4.07-0.06C92.12 102.7 92.49 102.32 92.48 101.86L92.48 101.86zM92.48 101.86"/>
  <path d="M118.29 98.01c-0.02-1.38-0.58-2.68-1.57-3.64 -1-0.97-2.3-1.48-3.69-1.46 -1.38 0.02-2.68 0.58-3.64 1.57 -0.96 0.99-1.48 2.3-1.46 3.69 0.02 1.39 0.58 2.68 1.58 3.64 0.99 0.96 2.3 1.48 3.68 1.46C116.04 103.23 118.33 100.87 118.29 98.01L118.29 98.01zM113.16 101.59c-0.94 0.01-1.82-0.34-2.49-0.99 -0.67-0.65-1.05-1.52-1.06-2.46 -0.02-0.94 0.34-1.82 0.99-2.49 0.65-0.67 1.52-1.05 2.46-1.06 0.94-0.02 1.82 0.34 2.49 0.99s1.05 1.52 1.06 2.46C116.64 99.97 115.09 101.56 113.16 101.59L113.16 101.59zM113.16 101.59"/>
  <path d="M130.5 98.25c0.15-0.26 0.14-0.58-0.01-0.84 -1.53-2.55-3.7-4.68-6.29-6.15 -0.4-0.23-0.82-0.44-1.24-0.63 -0.03-0.02-0.07-0.04-0.1-0.05 -2.31-1.06-4.85-1.6-7.42-1.56 0 0 0 0 0 0 -0.01 0-0.01 0-0.02 0 -0.01 0-0.02 0-0.03 0 -0.01 0-0.02 0-0.03 0l-3.93 0.36c-2.87-2.85-6.81-4.44-10.87-4.38 -1.32 0.02-2.62 0.21-3.88 0.56 -0.25 0.07-0.46 0.26-0.56 0.51 -0.09 0.25-0.07 0.52 0.07 0.75l2.53 4.11 -2.38 1.15c-1.18 0.57-1.93 1.78-1.91 3.08l0.1 6.48c0.01 0.91 0.39 1.75 1.02 2.37 0.28 0.27 0.61 0.5 0.98 0.66l2.42 1.07 -2.4 4.18c-0.13 0.23-0.15 0.51-0.04 0.75 0.05 0.1 0.11 0.2 0.19 0.27 0.11 0.1 0.24 0.18 0.38 0.21 1.27 0.32 2.58 0.47 3.9 0.45 4.06-0.06 7.95-1.77 10.73-4.71l3.94 0.24c0.01 0 0.02 0 0.03 0 0.01 0 0.02 0 0.03 0 0.01 0 0.02 0 0.02 0 0 0 0 0 0 0 2.57-0.04 5.09-0.66 7.37-1.79 0.04-0.02 0.07-0.03 0.11-0.05 0.41-0.21 0.82-0.43 1.22-0.67C126.94 103.04 129.05 100.85 130.5 98.25L130.5 98.25zM98.21 86.91c0.77-0.15 1.56-0.23 2.35-0.24 3.11-0.05 6.14 1 8.55 2.91l-8.77 0.8L98.21 86.91zM97.04 93.57l2.04-0.98 0.02 1.53 -3 0.74C96.18 94.31 96.53 93.81 97.04 93.57L97.04 93.57zM96.11 96.59l3.02-0.75 0.02 1.62 -3.03 0.05L96.11 96.59zM96.15 99.19l3.03-0.05 0.02 1.62 -3.04-0.66L96.15 99.19zM97.19 103.1c-0.52-0.23-0.89-0.71-0.98-1.27l3.02 0.65 0.02 1.53L97.19 103.1zM100.92 109.89c-0.79 0.01-1.58-0.05-2.36-0.17l2.03-3.53 8.79 0.53C107.03 108.7 104.03 109.84 100.92 109.89L100.92 109.89zM115.69 105.42l-14.74-0.89 -0.19-12.5 10.39-0.94c0.01 0 0.02 0 0.03 0l4.29-0.39c2.16-0.03 4.29 0.39 6.26 1.22l0.18 12.1C119.96 104.9 117.84 105.38 115.69 105.42L115.69 105.42zM123.58 103.12l-0.16-10.37c2.17 1.25 4.01 3 5.36 5.1C127.5 100 125.71 101.81 123.58 103.12L123.58 103.12zM123.58 103.12"/>
  <path d="M92.37 98.4c-0.01-0.46-0.39-0.83-0.85-0.83l-7.49 0.13c-0.46 0.01-0.83 0.39-0.82 0.85 0 0.23 0.1 0.44 0.26 0.59 0.15 0.15 0.37 0.24 0.6 0.24l7.49-0.12C92.01 99.25 92.38 98.87 92.37 98.4L92.37 98.4zM92.37 98.4"/>
</svg>