<svg viewBox="0 0 16 16" width="16px" height="16px"><path fill="#828282" d="M10.2498257,0 C7.91881236,0 6.4124091,1.5455198 6.4124091,3.93762159 L6.4124091,5.7531288 L4.32624866,5.7531288 C4.14597963,5.7531288 4,5.89927489 4,6.07954392 L4,8.71000697 C4,8.890276 4.14614608,9.03625563 4.32624866,9.03625563 L6.4124091,9.03625563 L6.4124091,15.6737513 C6.4124091,15.8540204 6.55838873,16 6.73865776,16 L9.46050373,16 C9.64077276,16 9.78675239,15.8538539 9.78675239,15.6737513 L9.78675239,9.03625563 L12.2259605,9.03625563 C12.4062295,9.03625563 12.5522091,8.890276 12.5522091,8.71000697 L12.5532079,6.07954392 C12.5532079,5.99298815 12.518752,5.91009436 12.4576636,5.84883951 C12.3965752,5.78758466 12.3133485,5.7531288 12.2267928,5.7531288 L9.78675239,5.7531288 L9.78675239,4.21410068 C9.78675239,3.47438178 9.96302654,3.09886292 10.9266253,3.09886292 L12.3243344,3.09836356 C12.504437,3.09836356 12.6504167,2.95221747 12.6504167,2.77211489 L12.6504167,0.329577729 C12.6504167,0.149641605 12.5046035,0.00366197476 12.3246674,0.00332906797 L10.2498257,0 Z"/></svg>