<?xml version="1.0" encoding="utf-8"?>
<!-- Generator: Adobe Illustrator 16.0.0, SVG Export Plug-In . SVG Version: 6.00 Build 0)  -->
<!DOCTYPE svg PUBLIC "-//W3C//DTD SVG 1.1//EN" "http://www.w3.org/Graphics/SVG/1.1/DTD/svg11.dtd">
<svg version="1.1" id="Capa_1" xmlns="http://www.w3.org/2000/svg" xmlns:xlink="http://www.w3.org/1999/xlink" x="0px" y="0px"
	 width="200px" height="200px" viewBox="0 0 200 200" enable-background="new 0 0 200 200" xml:space="preserve">
<g>
	<path fill="#FFFFFF" d="M71.258,57.609c0.246,0.763,0.446,1.547,0.596,2.331c0.193,1.012,1.079,1.715,2.072,1.715
		c0.132,0,0.266-0.012,0.399-0.038c1.146-0.219,1.896-1.326,1.677-2.471c-0.183-0.953-0.426-1.906-0.725-2.833
		c-0.357-1.11-1.546-1.721-2.658-1.362C71.509,55.31,70.9,56.5,71.258,57.609z"/>
	<path fill="#FFFFFF" d="M49.741,41.314c-0.002,1.166,0.942,2.113,2.108,2.115c6.098,0.011,12.069,2.93,15.976,7.809
		c0.417,0.521,1.03,0.792,1.65,0.792c0.463,0,0.929-0.151,1.318-0.463c0.911-0.729,1.058-2.058,0.329-2.969
		c-4.698-5.869-11.9-9.38-19.266-9.393c-0.001,0-0.002,0-0.003,0C50.688,39.206,49.743,40.149,49.741,41.314z"/>
	<path fill="#FFFFFF" d="M58.893,112.546h-9.488c-1.166,0-2.112,0.945-2.112,2.111c0,1.167,0.946,2.112,2.112,2.112h9.488
		c1.167,0,2.112-0.945,2.112-2.112C61.004,113.491,60.059,112.546,58.893,112.546z"/>
	<path fill="#FFFFFF" d="M199.381,128.212l-6.476-6.477c-4.144-4.144-10.603-4.596-15.251-1.361l-4.232-4.23
		c0.637,0.085,1.066,0.141,1.089,0.141c0.459,0,0.908-0.149,1.278-0.43c0.445-0.34,0.738-0.842,0.814-1.396l5.253-38.498
		c0.157-1.155-0.65-2.22-1.806-2.378l-9.078-1.242c-5.808-0.792-11.222,2.76-12.967,8.149l-20.494-2.795
		c-1.451-0.198-2.898-0.256-4.33-0.185v-9.335c0-4.446-1.731-8.622-4.871-11.754c-3.131-3.139-7.305-4.868-11.752-4.868
		c-4.439,0-8.613,1.729-11.752,4.87s-4.867,7.315-4.863,11.752v11.273h-8.168L83.4,71.071c0.612-2.495,0.944-5.099,0.944-7.781
		c0-18.003-14.646-32.649-32.65-32.649c-16.405,0-30.018,12.163-32.306,27.944L4.348,73.625C1.544,76.428,0,80.156,0,84.121
		c0,3.964,1.544,7.692,4.348,10.496l34.104,34.104v3.534c0,12.806,10.418,23.224,23.223,23.224h3.316l1.667,1.667
		c8.144,8.144,18.836,12.214,29.532,12.214c10.694,0,21.391-4.072,29.532-12.214l20.884-20.808l22.315,22.334
		c0.412,0.412,0.952,0.619,1.492,0.619s1.082-0.207,1.493-0.619l27.474-27.475C200.206,130.373,200.206,129.036,199.381,128.212z
		 M148.719,132.478v-15.985c3.314-0.448,6.514-1.941,9.055-4.483c0.945-0.944,1.751-1.99,2.422-3.12l9.129,9.129l-17.532,17.533
		L148.719,132.478z M124.132,111.803l-9.194-9.194l0.611-4.47c0.002-0.02,0.006-0.038,0.01-0.057
		c1.232,0.604,2.542,1.048,3.92,1.318c1.028,0.202,2.061,0.302,3.086,0.302c2.467,0,4.885-0.587,7.098-1.709l3.816,5.021
		c-1.166,0.803-2.271,1.713-3.293,2.736L124.132,111.803z M133.947,81.708c0.272,1.455,0.267,2.93-0.021,4.393
		c-0.598,3.043-2.346,5.671-4.92,7.401c-2.576,1.729-5.669,2.354-8.713,1.754c-1.306-0.257-2.528-0.722-3.649-1.382
		c1.251-3.265,3.383-6.128,6.235-8.296C126.113,83.117,129.961,81.788,133.947,81.708z M146.606,98.946
		c-3.294,0-6.481,0.688-9.406,1.985l-4.046-5.324c2.528-2.276,4.248-5.294,4.916-8.692c0.318-1.616,0.379-3.242,0.194-4.856
		l11.681,1.593l-2.088,15.329C147.442,98.96,147.025,98.946,146.606,98.946z M146.606,103.17c3.698,0,7.231,1.054,10.267,3.012
		c-0.545,1.043-1.241,1.996-2.086,2.841c-4.527,4.526-11.895,4.527-16.422,0c-0.84-0.841-1.531-1.784-2.07-2.812
		C139.34,104.233,142.891,103.17,146.606,103.17z M172.705,111.794l-3.34-0.456l4.686-34.313l3.336,0.457L172.705,111.794z
		 M159.343,84.935c1.161,0.151,2.22-0.651,2.377-1.807c0.55-4.031,4.142-6.906,8.144-6.647l-4.34,31.765l-2.496-2.496
		c-3.075-3.076-6.863-5.179-10.989-6.163l2.091-15.363L159.343,84.935z M120.323,82.215c-2.724,2.07-4.909,4.659-6.466,7.593
		l-9.689-9.69c0,0,0.005-12.275,0.012-12.44h24.766c0.007,0.166,0.012,10.437,0.012,10.437
		C125.865,78.855,122.932,80.232,120.323,82.215z M116.56,55.776c3.317,0,6.429,1.288,8.765,3.63
		c1.18,1.177,2.092,2.552,2.708,4.049h-22.94c0.614-1.496,1.525-2.869,2.703-4.048C110.135,57.065,113.248,55.776,116.56,55.776z
		 M101.748,83.67c0,0,10.286,10.265,10.39,10.336c-0.345,1.155-0.606,2.343-0.772,3.561l-0.177,1.292L96,83.671L101.748,83.67
		L101.748,83.67z M121.146,114.789l-6.502,6.501L77.109,83.756c1.984-2.459,3.617-5.209,4.828-8.177L121.146,114.789z M80.122,63.29
		c0,0.983-0.05,1.955-0.148,2.912c-6.926,6.73-16.281,9.576-24.346,7.484c-0.155-2.647-1.247-5.118-3.139-7.008
		c-2.043-2.044-4.761-3.17-7.65-3.17c-0.463,0-0.921,0.04-1.373,0.097c-3.976-8.624-1.363-19.868,6.655-27.885
		c0.297-0.297,0.588-0.573,0.875-0.838c0.233-0.006,0.465-0.018,0.7-0.018C67.369,34.864,80.122,47.616,80.122,63.29z
		 M44.838,67.732c1.762,0,3.419,0.686,4.665,1.932c1.246,1.246,1.932,2.903,1.932,4.665s-0.686,3.419-1.932,4.665
		c-1.246,1.246-2.903,1.933-4.665,1.933c-1.762,0-3.419-0.687-4.665-1.933c-1.246-1.245-1.933-2.902-1.933-4.664
		s0.687-3.419,1.933-4.665C41.418,68.418,43.076,67.732,44.838,67.732z M44.395,35.819C37.436,44.636,35.48,55.9,39.44,64.96
		c-0.812,0.469-1.573,1.038-2.253,1.719c-2.044,2.043-3.169,4.761-3.169,7.651s1.126,5.607,3.169,7.651
		c2.044,2.044,4.761,3.169,7.651,3.169c2.89,0,5.607-1.125,7.65-3.169c1.172-1.172,2.029-2.568,2.559-4.088
		c1.939,0.46,3.933,0.689,5.946,0.689c5.967,0,12.099-1.981,17.451-5.676c-3.951,10.957-14.448,18.812-26.749,18.812
		c-15.674,0-28.427-12.752-28.427-28.427C23.268,50.14,32.247,39.05,44.395,35.819z M38.452,101.906L10.245,73.7l8.839-8.839
		c0.6,12.617,8.398,23.374,19.367,28.263L38.452,101.906L38.452,101.906z M15.992,100.289l7.436-7.435l3.33,3.33l-7.436,7.435
		L15.992,100.289z M4.223,84.121c0-2.802,1.082-5.435,3.04-7.432l13.178,13.178l-7.435,7.436l-5.672-5.672
		C5.328,89.625,4.223,86.958,4.223,84.121z M22.308,106.605l7.436-7.436l8.708,8.709v14.87L22.308,106.605z M42.967,135.547
		c4.074-1.861,8.902-1.043,12.143,2.197c3.42,3.42,4.101,8.759,1.816,12.91C49.78,148.809,44.257,142.896,42.967,135.547z
		 M61.332,151.247c1.985-4.675,1.477-10.032-1.399-14.263l10.523-10.523h12.513c0.166,0,0.33,0.006,0.495,0.012v24.771
		C83.299,151.249,61.446,151.249,61.332,151.247z M95.367,138.858c0,5.166-3.177,9.603-7.68,11.462v-22.926
		C92.189,129.256,95.367,133.692,95.367,138.858z M122.737,154.16c-14.185,14.182-36.986,14.622-51.704,1.318h11.936
		c9.165,0,16.62-7.455,16.62-16.62s-7.456-16.621-16.62-16.621H71.694V98.819c0-1.167-0.946-2.112-2.112-2.112
		s-2.112,0.945-2.112,2.112v24.656l-10.373,10.373c-4.053-3.396-9.511-4.373-14.422-2.721V94.664
		c2.867,0.825,5.891,1.277,9.02,1.277c8.742,0,16.686-3.46,22.552-9.074l37.411,37.41l-5.117,5.116
		c-0.824,0.824-0.824,2.162,0,2.985c0.824,0.825,2.163,0.825,2.986,0l23.451-23.45c0.665,1.111,1.464,2.145,2.4,3.08
		c2.558,2.559,5.78,4.053,9.116,4.492v15.978L122.737,154.16z M154.778,138.536l17.532-17.532l3.719,3.718
		c0.824,0.825,2.162,0.825,2.985,0c2.876-2.876,7.474-2.992,10.5-0.366l-24.469,24.469L154.778,138.536z M170.414,154.192
		l-2.383-2.382l24.488-24.488l2.383,2.383L170.414,154.192z"/>
</g>
</svg>
