<?xml version="1.0" encoding="utf-8"?>
<!-- Generator: Adobe Illustrator 16.0.0, SVG Export Plug-In . SVG Version: 6.00 Build 0)  -->
<!DOCTYPE svg PUBLIC "-//W3C//DTD SVG 1.1//EN" "http://www.w3.org/Graphics/SVG/1.1/DTD/svg11.dtd">
<svg version="1.1" id="Capa_1" xmlns="http://www.w3.org/2000/svg" xmlns:xlink="http://www.w3.org/1999/xlink" x="0px" y="0px"
	 width="200px" height="200px" viewBox="0 0 200 200" enable-background="new 0 0 200 200" xml:space="preserve">
<g>
	<path id="Comet" fill="#FFFFFF" d="M159.375,162.5c1.725,0,3.125-1.399,3.125-3.125c0-1.725-1.4-3.124-3.125-3.124
		s-3.125,1.399-3.125,3.124C156.25,161.101,157.65,162.5,159.375,162.5L159.375,162.5z M148.438,150
		c0.863,0,1.562-0.699,1.562-1.562c0-0.862-0.699-1.562-1.562-1.562c-5.168,0-9.375,4.207-9.375,9.375
		c0,5.169,4.207,9.375,9.375,9.375c0.863,0,1.562-0.699,1.562-1.562c0-0.862-0.699-1.562-1.562-1.562c-3.447,0-6.25-2.803-6.25-6.25
		C142.188,152.804,144.99,150,148.438,150L148.438,150z M134.375,153.125c0-4.309,1.476-8.269,3.929-11.44
		c0.841,1.247,2.269,2.065,3.884,2.065c2.588,0,4.688-2.1,4.688-4.688c0-1.206-0.468-2.297-1.219-3.128
		c2.291-0.997,4.816-1.56,7.469-1.56c1.553,0,3.057,0.213,4.504,0.569c-0.875,1.706-1.379,3.632-1.379,5.682
		c0,6.903,5.598,12.5,12.5,12.5c1.078,0,2.106-0.182,3.104-0.438c0.003,0.146,0.021,0.29,0.021,0.438
		c0,10.337-8.412,18.749-18.75,18.749C142.788,171.875,134.375,163.463,134.375,153.125L134.375,153.125z M160.625,135.953
		c5.557,2.436,9.707,7.481,10.896,13.582c-0.881,0.275-1.799,0.465-2.771,0.465c-5.168,0-9.375-4.206-9.375-9.375
		C159.375,138.926,159.832,137.328,160.625,135.953L160.625,135.953z M175,153.125c0-12.08-9.793-21.875-21.875-21.875
		s-21.875,9.794-21.875,21.875c0,12.082,9.793,21.875,21.875,21.875S175,165.207,175,153.125L175,153.125z M47.332,66.082
		c-0.609,0.612-0.609,1.6,0,2.212l71.875,71.875c0.307,0.303,0.705,0.456,1.105,0.456s0.801-0.152,1.107-0.456
		c0.609-0.612,0.609-1.601,0-2.212L49.544,66.082C48.932,65.473,47.944,65.473,47.332,66.082L47.332,66.082z M112.957,99.544
		c0.307,0.303,0.706,0.457,1.105,0.457c0.4,0,0.801-0.153,1.107-0.457c0.609-0.612,0.609-1.6,0-2.212L18.294,0.457
		c-0.612-0.609-1.6-0.609-2.213,0c-0.609,0.612-0.609,1.6,0,2.212L112.957,99.544z M185.812,117.312l-83.143-82.48
		c-0.613-0.609-1.601-0.609-2.213,0c-0.609,0.612-0.609,1.6,0,2.212l83.146,82.479c8.56,8.555,13.271,19.938,13.271,32.039
		c0,12.104-4.712,23.485-13.271,32.041c-8.56,8.56-19.938,13.271-32.041,13.271c-12.102,0-23.48-4.712-32.039-13.271L2.669,69.207
		c-0.612-0.609-1.6-0.609-2.212,0c-0.609,0.612-0.609,1.6,0,2.213l116.855,114.393c9.15,9.15,21.312,14.188,34.25,14.188
		s25.1-5.037,34.25-14.188c9.15-9.149,14.188-21.309,14.188-34.25C200,138.622,194.963,126.463,185.812,117.312L185.812,117.312z"/>
</g>
</svg>
