<?xml version="1.0" encoding="utf-8"?>
<!-- Generator: Adobe Illustrator 16.0.0, SVG Export Plug-In . SVG Version: 6.00 Build 0)  -->
<!DOCTYPE svg PUBLIC "-//W3C//DTD SVG 1.1//EN" "http://www.w3.org/Graphics/SVG/1.1/DTD/svg11.dtd">
<svg version="1.1" id="Layer_1" xmlns="http://www.w3.org/2000/svg" xmlns:xlink="http://www.w3.org/1999/xlink" x="0px" y="0px"
	 width="200px" height="200px" viewBox="0 0 200 200" enable-background="new 0 0 200 200" xml:space="preserve">
<g>
	<g>
		<g>
			<path fill="#FFFFFF" d="M87.145,60.904V35.354C87.145,15.861,71.284,0,51.791,0C32.299,0,16.438,15.861,16.438,35.354v25.551
				c-9.507,4.744-16.07,14.543-16.07,25.872v32.14c0,10.635,8.649,19.283,19.283,19.283v61.064H83.93v-61.064
				c10.635,0,19.284-8.648,19.284-19.283v-32.14C103.215,75.447,96.651,65.647,87.145,60.904z M22.866,35.354
				c0-15.948,12.975-28.925,28.925-28.925c15.951,0,28.925,12.978,28.925,28.925v23.243c-2.07-0.472-4.216-0.746-6.428-0.746H64.21
				c7.916-4.387,13.293-12.823,13.293-22.497c0-14.177-11.535-25.712-25.712-25.712c-14.177,0-25.711,11.535-25.711,25.712
				c0,9.674,5.377,18.11,13.293,22.497H29.294c-2.211,0-4.358,0.273-6.428,0.746V35.354z M43.757,38.567
				c6.203,0,11.249-5.046,11.249-11.249c0-5.007-3.311-9.211-7.842-10.664c1.484-0.367,3.031-0.585,4.628-0.585
				c10.635,0,19.283,8.648,19.283,19.283s-8.648,19.284-19.284,19.284c-10.635,0-19.283-8.649-19.283-19.283
				c0-1.598,0.219-3.143,0.585-4.628C34.545,35.257,38.75,38.567,43.757,38.567z M38.936,27.318c0-2.658,2.163-4.821,4.821-4.821
				c2.658,0,4.821,2.163,4.821,4.821s-2.163,4.821-4.821,4.821S38.936,29.977,38.936,27.318z M19.652,131.771
				c-7.09,0-12.855-5.767-12.855-12.856h12.855V131.771z M48.578,192.836H26.08v-6.428h22.498V192.836z M48.578,157.482h-3.214
				v6.428h3.214v16.07H26.08v-16.07h12.856v-6.428H26.08v-25.711h6.428v3.213h6.428v-3.213h9.642v3.213h6.428v-3.213h9.642v3.213
				h6.428v-3.213h6.427v25.711h-3.214v6.428h3.214v16.07H55.005v-16.07h12.856v-6.428H55.005v-12.855h-6.428V157.482z
				 M77.503,192.836H55.005v-6.428h22.498V192.836z M83.93,131.771v-12.856h12.856C96.786,126.005,91.021,131.771,83.93,131.771z
				 M96.786,112.487H83.93V80.348h-6.427v44.996h-6.428v-3.215h-6.428v3.215h-9.642v-3.215h-6.428v3.215h-9.642v-3.215h-6.428v3.215
				h-6.427V80.348h-6.428v32.139H6.796V86.776c0-12.405,10.095-22.498,22.498-22.498h44.995c12.403,0,22.498,10.092,22.498,22.498
				V112.487z"/>
			<path fill="#FFFFFF" d="M29.294,112.487h44.995V70.707H29.294V112.487z M67.861,96.417H55.005v-9.642h12.856V96.417z
				 M35.722,77.134h32.139v3.214H48.578v22.498h19.284v3.215H35.722V77.134z"/>
			<rect x="38.936" y="83.562" fill="#FFFFFF" width="6.428" height="6.428"/>
			<rect x="38.936" y="93.204" fill="#FFFFFF" width="6.428" height="6.428"/>
			<path fill="#FFFFFF" d="M138.566,54.637c0,8.861,7.209,16.07,16.07,16.07s16.07-7.209,16.07-16.07s-7.209-16.07-16.07-16.07
				C145.776,38.567,138.566,45.775,138.566,54.637z M164.279,54.637c0,5.315-4.326,9.642-9.643,9.642
				c-5.315,0-9.642-4.326-9.642-9.642c0-5.316,4.326-9.642,9.642-9.642C159.953,44.995,164.279,49.321,164.279,54.637z"/>
			<path fill="#FFFFFF" d="M180.349,96.675v-40.1c0-17.779-8.392-34.579-22.497-45.306V0h-6.428v11.265
				c-14.105,10.728-22.498,27.527-22.498,45.306v40.104c-10.883,1.568-19.283,10.931-19.283,22.24v35.354h11.628l4.441-8.884
				c1.225-2.448,3.687-3.973,6.428-3.973h3.214v8.884l-3.828,7.659c-1.703,3.403-2.6,7.209-2.6,11.008
				c0,7.936,3.854,15.424,10.311,20.035l15.4,11.002l15.401-11.002c6.457-4.611,10.311-12.1,10.311-20.035
				c0-3.799-0.896-7.604-2.601-11.011l-3.828-7.655v-8.884h3.215c2.74,0,5.203,1.524,6.428,3.973l4.441,8.884h11.627v-35.354
				C199.632,107.605,191.23,98.244,180.349,96.675z M128.926,135.391c-3.848,0.925-7.139,3.467-8.964,7.121l-2.664,5.329h-1.228
				v-28.925c0-7.759,5.531-14.251,12.855-15.746V135.391L128.926,135.391z M166.304,183.766l-11.667,8.334l-11.666-8.334
				c-4.77-3.406-7.617-8.94-7.617-14.803c0-2.809,0.665-5.621,1.922-8.135l3.277-6.56h1.229v4.483
				c0,8.334,4.139,16.066,11.071,20.691l1.783,1.186l1.783-1.189c6.933-4.621,11.071-12.357,11.071-20.688v-4.483h1.229l3.277,6.56
				c1.257,2.517,1.922,5.329,1.922,8.135C173.92,174.824,171.072,180.359,166.304,183.766z M148.21,154.269h12.855v4.483
				c0,5.426-2.368,10.512-6.428,13.99c-4.06-3.48-6.428-8.564-6.428-13.99V154.269z M141.781,147.841v-6.428h25.711v6.428H141.781z
				 M173.92,77.134h-3.214v6.427h3.214v51.423h-38.566V83.562h28.926v-6.428h-28.926v-20.56c0-15.494,7.167-30.166,19.283-39.702
				c12.117,9.535,19.283,24.207,19.283,39.702V77.134z M193.205,147.841L193.205,147.841h-1.229l-2.664-5.329
				c-1.824-3.657-5.116-6.196-8.963-7.122v-32.22c7.324,1.494,12.855,7.983,12.855,15.745V147.841L193.205,147.841z"/>
			<rect x="164.279" y="115.701" fill="#FFFFFF" width="6.427" height="6.428"/>
			<rect x="164.279" y="125.344" fill="#FFFFFF" width="6.427" height="6.428"/>
			<rect x="154.637" y="125.344" fill="#FFFFFF" width="6.428" height="6.428"/>
		</g>
	</g>
</g>
</svg>
