<?xml version="1.0" encoding="utf-8"?>
<!-- Generator: Adobe Illustrator 16.0.0, SVG Export Plug-In . SVG Version: 6.00 Build 0)  -->
<!DOCTYPE svg PUBLIC "-//W3C//DTD SVG 1.1//EN" "http://www.w3.org/Graphics/SVG/1.1/DTD/svg11.dtd">
<svg version="1.1" id="Capa_1" xmlns="http://www.w3.org/2000/svg" xmlns:xlink="http://www.w3.org/1999/xlink" x="0px" y="0px"
	 width="200px" height="200px" viewBox="0 0 200 200" enable-background="new 0 0 200 200" xml:space="preserve">
<g>
	<path id="Telescope" fill="#FFFFFF" d="M130.469,37.709L95.287,58.022c-0.744,0.431-1.003,1.391-0.572,2.135
		c0.428,0.744,1.39,1.003,2.134,0.572l35.182-20.312c0.744-0.428,1.004-1.391,0.572-2.134
		C132.176,37.538,131.213,37.278,130.469,37.709L130.469,37.709z M11.381,50.584l3.606,0.815c0.303,0.072,0.541,0.284,0.625,0.553
		l0.991,3.853c0.163,0.594,1.003,0.594,1.166,0l0.991-3.853c0.084-0.269,0.322-0.481,0.625-0.553l3.609-0.815
		c0.591-0.163,0.591-1.003,0-1.166l-3.609-0.816c-0.304-0.075-0.541-0.284-0.625-0.553l-0.991-3.856
		c-0.163-0.591-1.003-0.591-1.166,0l-0.991,3.856c-0.084,0.269-0.322,0.479-0.625,0.553l-3.606,0.816
		C10.788,49.582,10.788,50.422,11.381,50.584L11.381,50.584z M27.45,32.416l7.216,1.631c0.606,0.147,1.082,0.569,1.247,1.109
		l1.985,7.706c0.325,1.185,2.003,1.185,2.328,0l1.984-7.706c0.166-0.541,0.641-0.962,1.247-1.109l7.219-1.631
		c1.182-0.325,1.182-2.003,0-2.328l-7.219-1.631c-0.606-0.15-1.081-0.568-1.247-1.109l-1.984-7.71c-0.325-1.181-2.003-1.181-2.328,0
		l-1.985,7.71c-0.166,0.541-0.64,0.959-1.247,1.109l-7.216,1.631C26.266,30.413,26.266,32.091,27.45,32.416L27.45,32.416z
		 M182.506,45.284L171.568,26.34L160.632,7.394l5.412-3.125l21.876,37.891L182.506,45.284z M168.973,53.097l-1.563-2.707
		l-9.375-16.237l-10.938-18.947l10.828-6.25l10.938,18.947l10.937,18.944L168.973,53.097z M60.3,108.622L44.675,81.556l-2.706,1.562
		l15.625,27.066l-10.825,6.25l-4.688-8.119l-3.125-5.413l-7.812-13.534l102.841-59.375L149.61,57.06l2.706-1.563l-15.625-27.065
		l10.824-6.25l7.812,13.535l7.812,13.531L60.3,108.622z M95.313,138.943L81.2,133.3l14.113-34.687V138.943z M15.229,119.71
		l-3.125-5.409l22.562-12.582l3.125,5.413L15.229,119.71z M98.438,98.613l14.109,34.687l-14.109,5.644V98.613z M167.188,0
		l-10.824,6.25l-13.535,7.812l3.125,5.412L26.875,88.225l6.228,10.788L7.812,113.116l6.25,10.825l25.29-14.104l6.272,10.865
		l48.785-28.166l-36.481,89.687c-0.328,0.801,0.056,1.713,0.856,2.035c0.194,0.081,0.394,0.115,0.591,0.115
		c0.615,0,1.197-0.365,1.447-0.973l19.203-47.209l15.288,6.115v56.129c0,0.865,0.696,1.562,1.562,1.562
		c0.863,0,1.563-0.697,1.563-1.562v-56.127l15.287-6.116l19.203,47.21c0.247,0.605,0.828,0.972,1.447,0.972
		c0.193,0,0.396-0.034,0.588-0.115c0.799-0.321,1.184-1.234,0.858-2.034L98.4,90.235l66.303-38.281l3.125,5.413l16.24-9.375
		l8.119-4.688L167.188,0z"/>
</g>
</svg>
