<svg width="163px" height="22px" viewBox="16 16 163 22">
  <path d="M31.3391557,16.3842795 L31.3391557,30.5385735 C31.3391557,31.6273708 31.1897152,32.62542 30.8908297,33.5327511 C30.5919442,34.4400822 30.1222739,35.2246449 29.4818049,35.8864629 C28.841336,36.5482808 28.0140759,37.0659855 27,37.4395924 C25.9859241,37.8131993 24.7637141,38 23.3333333,38 L16,38 L16,34.2212518 L23.1091703,34.2212518 C23.963129,34.2212518 24.6729715,34.1251829 25.2387191,33.9330422 C25.8044667,33.7409015 26.2581254,33.4793806 26.5997089,33.1484716 C26.9412923,32.8175626 27.1814646,32.4226127 27.3202329,31.9636099 C27.4590012,31.5046071 27.5283843,31.0189254 27.5283843,30.5065502 L27.5283843,16.3842795 L31.3391557,16.3842795 Z M53.0509461,16.3842795 L53.0509461,20.1630277 L41.9708879,20.1630277 C40.9888355,20.1630277 40.2736558,20.4031999 39.8253275,20.8835517 C39.3769992,21.3639034 39.1528384,21.977677 39.1528384,22.7248908 C39.1528384,23.0451253 39.2008729,23.3600179 39.2969432,23.6695779 C39.3930136,23.9791379 39.5638028,24.2566703 39.8093159,24.5021834 C40.054829,24.7476965 40.3803958,24.9398343 40.7860262,25.0786026 C41.1916566,25.2173709 41.7146984,25.286754 42.3551674,25.286754 L47.4148472,25.286754 C48.8879259,25.286754 50.0941244,25.4735547 51.0334789,25.8471616 C51.9728334,26.2207685 52.7146989,26.7064502 53.2590975,27.3042213 C53.8034962,27.9019923 54.1770975,28.585149 54.3799127,29.3537118 C54.5827278,30.1222746 54.6841339,30.8908259 54.6841339,31.6593886 C54.6841339,32.5773942 54.556042,33.4206657 54.2998544,34.1892285 C54.0436668,34.9577913 53.6380426,35.6249365 53.0829694,36.1906841 C52.5278963,36.7564317 51.8180538,37.1994162 50.9534207,37.5196507 C50.0887875,37.8398852 49.0373667,38 47.7991266,38 L35.7583697,38 L35.7583697,34.2212518 L47.9272198,34.2212518 C48.9519702,34.2212518 49.70451,33.9704052 50.1848617,33.4687045 C50.6652135,32.9670038 50.9053857,32.3212072 50.9053857,31.5312955 C50.9053857,31.189712 50.8520141,30.8534708 50.7452693,30.5225619 C50.6385245,30.1916529 50.457061,29.9034462 50.2008734,29.657933 C49.9446858,29.4124199 49.5977703,29.2149449 49.1601164,29.0655022 C48.7224626,28.9160594 48.172735,28.8413392 47.510917,28.8413392 L42.4832606,28.8413392 C41.0315308,28.8413392 39.846681,28.6598757 38.9286754,28.2969432 C38.0106698,27.9340108 37.290153,27.4536663 36.7671033,26.8558952 C36.2440537,26.2581241 35.8811267,25.5856418 35.6783115,24.8384279 C35.4754963,24.0912141 35.3740902,23.3440115 35.3740902,22.5967977 C35.3740902,21.7001411 35.496845,20.872881 35.7423581,20.1149927 C35.9878712,19.3571044 36.3828211,18.7006335 36.9272198,18.1455604 C37.4716184,17.5904873 38.1707866,17.1581772 39.0247453,16.8486172 C39.8787039,16.5390572 40.903439,16.3842795 42.0989811,16.3842795 L53.0509461,16.3842795 Z M71.2081514,16.3842795 L71.2081514,25.1906841 L82.2561863,25.1906841 L82.2561863,16.3842795 L86.0669578,16.3842795 L86.0669578,38 L82.2561863,38 L82.2561863,28.9694323 L71.2081514,28.9694323 L71.2081514,38 L67.4294032,38 L67.4294032,16.3842795 L71.2081514,16.3842795 Z M93.4323144,38 L89.2692868,38 L96.8588064,18.7860262 C97.2644368,17.7612758 97.8355131,17.040759 98.5720524,16.6244541 C99.3085917,16.2081493 100.253269,16 101.406114,16 C102.537609,16 103.471612,16.2081493 104.208151,16.6244541 C104.944691,17.040759 105.505093,17.7612758 105.889374,18.7860262 L113.190684,38 L108.995633,38 L102.430859,20.6113537 C102.238718,20.1203275 101.886465,19.874818 101.37409,19.874818 C100.861715,19.874818 100.498788,20.1203275 100.285298,20.6113537 L93.4323144,38 Z M131.15575,16.3842795 L131.15575,20.1630277 L122.797671,20.1630277 C120.705472,20.1630277 119.184381,20.7127553 118.234352,21.8122271 C117.284323,22.9116989 116.809316,24.7103223 116.809316,27.2081514 C116.809316,29.6846315 117.278986,31.4725806 118.218341,32.5720524 C119.157695,33.6715242 120.684123,34.2212518 122.797671,34.2212518 L131.15575,34.2212518 L131.15575,38 L122.797671,38 C119.638024,38 117.22029,37.108694 115.544396,35.3260553 C113.868502,33.5434166 113.030568,30.8374757 113.030568,27.2081514 C113.030568,23.5574781 113.868502,20.8408629 115.544396,19.0582242 C117.22029,17.2755855 119.638024,16.3842795 122.797671,16.3842795 L131.15575,16.3842795 Z M139.449782,16.3842795 L139.449782,25.5429403 L141.531295,25.5429403 C142.449301,25.5429403 143.201841,25.5162545 143.788937,25.4628821 C144.376034,25.4095097 144.861716,25.286755 145.245997,25.0946143 C145.630278,24.9024736 145.955845,24.6302783 146.222707,24.2780204 C146.48957,23.9257624 146.772439,23.4507551 147.071325,22.852984 L150.369723,16.3842795 L154.436681,16.3842795 L151.042213,23.1091703 C150.551186,24.0698738 150.028144,24.870448 149.473071,25.510917 C148.917998,26.151386 148.192144,26.6637535 147.295488,27.0480349 C147.807863,27.1761287 148.256184,27.3522551 148.640466,27.5764192 C149.024747,27.8005834 149.382337,28.0781158 149.713246,28.4090247 C150.044155,28.7399337 150.359048,29.1348837 150.657933,29.5938865 C150.956819,30.0528892 151.266374,30.5919426 151.586608,31.2110626 L155.077147,38 L150.850073,38 L147.551674,31.5953421 C147.252788,31.01892 146.964582,30.5599241 146.687045,30.2183406 C146.409509,29.8767571 146.057256,29.6098991 145.630277,29.4177584 C145.203297,29.2256177 144.669581,29.102863 144.029112,29.0494905 C143.388643,28.9961181 142.556046,28.9694323 141.531295,28.9694323 L139.449782,28.9694323 L139.449782,38 L135.671033,38 L135.671033,16.3842795 L139.449782,16.3842795 Z M175.027656,16.3842795 L175.027656,20.1630277 L163.947598,20.1630277 C162.965546,20.1630277 162.250366,20.4031999 161.802038,20.8835517 C161.35371,21.3639034 161.129549,21.977677 161.129549,22.7248908 C161.129549,23.0451253 161.177583,23.3600179 161.273654,23.6695779 C161.369724,23.9791379 161.540513,24.2566703 161.786026,24.5021834 C162.031539,24.7476965 162.357106,24.9398343 162.762737,25.0786026 C163.168367,25.2173709 163.691409,25.286754 164.331878,25.286754 L169.391557,25.286754 C170.864636,25.286754 172.070835,25.4735547 173.010189,25.8471616 C173.949544,26.2207685 174.691409,26.7064502 175.235808,27.3042213 C175.780207,27.9019923 176.153808,28.585149 176.356623,29.3537118 C176.559438,30.1222746 176.660844,30.8908259 176.660844,31.6593886 C176.660844,32.5773942 176.532752,33.4206657 176.276565,34.1892285 C176.020377,34.9577913 175.614753,35.6249365 175.05968,36.1906841 C174.504607,36.7564317 173.794764,37.1994162 172.930131,37.5196507 C172.065498,37.8398852 171.014077,38 169.775837,38 L157.73508,38 L157.73508,34.2212518 L169.90393,34.2212518 C170.928681,34.2212518 171.68122,33.9704052 172.161572,33.4687045 C172.641924,32.9670038 172.882096,32.3212072 172.882096,31.5312955 C172.882096,31.189712 172.828724,30.8534708 172.72198,30.5225619 C172.615235,30.1916529 172.433771,29.9034462 172.177584,29.657933 C171.921396,29.4124199 171.574481,29.2149449 171.136827,29.0655022 C170.699173,28.9160594 170.149445,28.8413392 169.487627,28.8413392 L164.459971,28.8413392 C163.008241,28.8413392 161.823391,28.6598757 160.905386,28.2969432 C159.98738,27.9340108 159.266863,27.4536663 158.743814,26.8558952 C158.220764,26.2581241 157.857837,25.5856418 157.655022,24.8384279 C157.452207,24.0912141 157.350801,23.3440115 157.350801,22.5967977 C157.350801,21.7001411 157.473555,20.872881 157.719068,20.1149927 C157.964582,19.3571044 158.359531,18.7006335 158.90393,18.1455604 C159.448329,17.5904873 160.147497,17.1581772 161.001456,16.8486172 C161.855414,16.5390572 162.880149,16.3842795 164.075691,16.3842795 L175.027656,16.3842795 Z" />
</svg>